<svg id="visual" viewBox="0 0 960 540" width="960" height="540" xmlns="http://www.w3.org/2000/svg" xmlns:xlink="http://www.w3.org/1999/xlink" version="1.1"><path d="M0 460L22.8 445.2C45.7 430.3 91.3 400.7 137 398.8C182.7 397 228.3 423 274 425.2C319.7 427.3 365.3 405.7 411.2 397.3C457 389 503 394 548.8 396.3C594.7 398.7 640.3 398.3 686 395C731.7 391.7 777.3 385.3 823 392.5C868.7 399.7 914.3 420.3 937.2 430.7L960 441L960 541L937.2 541C914.3 541 868.7 541 823 541C777.3 541 731.7 541 686 541C640.3 541 594.7 541 548.8 541C503 541 457 541 411.2 541C365.3 541 319.7 541 274 541C228.3 541 182.7 541 137 541C91.3 541 45.7 541 22.8 541L0 541Z" fill="#a970c9"></path><path d="M0 398L22.8 410.7C45.7 423.3 91.3 448.7 137 448.7C182.7 448.7 228.3 423.3 274 422.2C319.7 421 365.3 444 411.2 449.7C457 455.3 503 443.7 548.8 435C594.7 426.3 640.3 420.7 686 424.8C731.7 429 777.3 443 823 443.7C868.7 444.3 914.3 431.7 937.2 425.3L960 419L960 541L937.2 541C914.3 541 868.7 541 823 541C777.3 541 731.7 541 686 541C640.3 541 594.7 541 548.8 541C503 541 457 541 411.2 541C365.3 541 319.7 541 274 541C228.3 541 182.7 541 137 541C91.3 541 45.7 541 22.8 541L0 541Z" fill="#ae5cb0"></path><path d="M0 429L22.8 432.2C45.7 435.3 91.3 441.7 137 448.8C182.7 456 228.3 464 274 470C319.7 476 365.3 480 411.2 474.8C457 469.7 503 455.3 548.8 453.7C594.7 452 640.3 463 686 470.5C731.7 478 777.3 482 823 475.7C868.7 469.3 914.3 452.7 937.2 444.3L960 436L960 541L937.2 541C914.3 541 868.7 541 823 541C777.3 541 731.7 541 686 541C640.3 541 594.7 541 548.8 541C503 541 457 541 411.2 541C365.3 541 319.7 541 274 541C228.3 541 182.7 541 137 541C91.3 541 45.7 541 22.8 541L0 541Z" fill="#b04895"></path><path d="M0 499L22.8 494.3C45.7 489.7 91.3 480.3 137 472.8C182.7 465.3 228.3 459.7 274 458C319.7 456.3 365.3 458.7 411.2 464.7C457 470.7 503 480.3 548.8 483.2C594.7 486 640.3 482 686 475.2C731.7 468.3 777.3 458.7 823 461.3C868.7 464 914.3 479 937.2 486.5L960 494L960 541L937.2 541C914.3 541 868.7 541 823 541C777.3 541 731.7 541 686 541C640.3 541 594.7 541 548.8 541C503 541 457 541 411.2 541C365.3 541 319.7 541 274 541C228.3 541 182.7 541 137 541C91.3 541 45.7 541 22.8 541L0 541Z" fill="#ad3479"></path><path d="M0 493L22.8 491.7C45.7 490.3 91.3 487.7 137 488C182.7 488.3 228.3 491.7 274 493.7C319.7 495.7 365.3 496.3 411.2 497.3C457 498.3 503 499.7 548.8 498.7C594.7 497.7 640.3 494.3 686 494.7C731.7 495 777.3 499 823 501.7C868.7 504.3 914.3 505.7 937.2 506.3L960 507L960 541L937.2 541C914.3 541 868.7 541 823 541C777.3 541 731.7 541 686 541C640.3 541 594.7 541 548.8 541C503 541 457 541 411.2 541C365.3 541 319.7 541 274 541C228.3 541 182.7 541 137 541C91.3 541 45.7 541 22.8 541L0 541Z" fill="#a71e5d"></path><path d="M0 493L22.8 495C45.7 497 91.3 501 137 503.8C182.7 506.7 228.3 508.3 274 506.5C319.7 504.7 365.3 499.3 411.2 496.8C457 494.3 503 494.7 548.8 495.3C594.7 496 640.3 497 686 497.5C731.7 498 777.3 498 823 499C868.7 500 914.3 502 937.2 503L960 504L960 541L937.2 541C914.3 541 868.7 541 823 541C777.3 541 731.7 541 686 541C640.3 541 594.7 541 548.8 541C503 541 457 541 411.2 541C365.3 541 319.7 541 274 541C228.3 541 182.7 541 137 541C91.3 541 45.7 541 22.8 541L0 541Z" fill="#9d0142"></path></svg>