<svg id="visual" viewBox="0 0 960 540" width="960" height="540" xmlns="http://www.w3.org/2000/svg" xmlns:xlink="http://www.w3.org/1999/xlink" version="1.1"><path d="M0 153L26.7 164.3C53.3 175.7 106.7 198.3 160 197C213.3 195.7 266.7 170.3 320 160.2C373.3 150 426.7 155 480 164.7C533.3 174.3 586.7 188.7 640 194.5C693.3 200.3 746.7 197.7 800 187.5C853.3 177.3 906.7 159.7 933.3 150.8L960 142L960 0L933.3 0C906.7 0 853.3 0 800 0C746.7 0 693.3 0 640 0C586.7 0 533.3 0 480 0C426.7 0 373.3 0 320 0C266.7 0 213.3 0 160 0C106.7 0 53.3 0 26.7 0L0 0Z" fill="#a970c9"></path><path d="M0 190L26.7 177.5C53.3 165 106.7 140 160 136.8C213.3 133.7 266.7 152.3 320 155.8C373.3 159.3 426.7 147.7 480 138.5C533.3 129.3 586.7 122.7 640 133C693.3 143.3 746.7 170.7 800 177.7C853.3 184.7 906.7 171.3 933.3 164.7L960 158L960 0L933.3 0C906.7 0 853.3 0 800 0C746.7 0 693.3 0 640 0C586.7 0 533.3 0 480 0C426.7 0 373.3 0 320 0C266.7 0 213.3 0 160 0C106.7 0 53.3 0 26.7 0L0 0Z" fill="#ae60b4"></path><path d="M0 116L26.7 121.7C53.3 127.3 106.7 138.7 160 143.8C213.3 149 266.7 148 320 149.2C373.3 150.3 426.7 153.7 480 157.5C533.3 161.3 586.7 165.7 640 161.5C693.3 157.3 746.7 144.7 800 140.2C853.3 135.7 906.7 139.3 933.3 141.2L960 143L960 0L933.3 0C906.7 0 853.3 0 800 0C746.7 0 693.3 0 640 0C586.7 0 533.3 0 480 0C426.7 0 373.3 0 320 0C266.7 0 213.3 0 160 0C106.7 0 53.3 0 26.7 0L0 0Z" fill="#b04f9e"></path><path d="M0 115L26.7 116.2C53.3 117.3 106.7 119.7 160 123C213.3 126.3 266.7 130.7 320 123.7C373.3 116.7 426.7 98.3 480 95.5C533.3 92.7 586.7 105.3 640 113.5C693.3 121.7 746.7 125.3 800 122.7C853.3 120 906.7 111 933.3 106.5L960 102L960 0L933.3 0C906.7 0 853.3 0 800 0C746.7 0 693.3 0 640 0C586.7 0 533.3 0 480 0C426.7 0 373.3 0 320 0C266.7 0 213.3 0 160 0C106.7 0 53.3 0 26.7 0L0 0Z" fill="#af3e87"></path><path d="M0 111L26.7 104.7C53.3 98.3 106.7 85.7 160 85.2C213.3 84.7 266.7 96.3 320 97.3C373.3 98.3 426.7 88.7 480 79.8C533.3 71 586.7 63 640 65.8C693.3 68.7 746.7 82.3 800 82.2C853.3 82 906.7 68 933.3 61L960 54L960 0L933.3 0C906.7 0 853.3 0 800 0C746.7 0 693.3 0 640 0C586.7 0 533.3 0 480 0C426.7 0 373.3 0 320 0C266.7 0 213.3 0 160 0C106.7 0 53.3 0 26.7 0L0 0Z" fill="#ac2d70"></path><path d="M0 44L26.7 47.8C53.3 51.7 106.7 59.3 160 60.5C213.3 61.7 266.7 56.3 320 51C373.3 45.7 426.7 40.3 480 45.7C533.3 51 586.7 67 640 72.5C693.3 78 746.7 73 800 65.3C853.3 57.7 906.7 47.3 933.3 42.2L960 37L960 0L933.3 0C906.7 0 853.3 0 800 0C746.7 0 693.3 0 640 0C586.7 0 533.3 0 480 0C426.7 0 373.3 0 320 0C266.7 0 213.3 0 160 0C106.7 0 53.3 0 26.7 0L0 0Z" fill="#a61a59"></path><path d="M0 46L26.7 44.2C53.3 42.3 106.7 38.7 160 35.8C213.3 33 266.7 31 320 30.5C373.3 30 426.7 31 480 28.5C533.3 26 586.7 20 640 18C693.3 16 746.7 18 800 19.7C853.3 21.3 906.7 22.7 933.3 23.3L960 24L960 0L933.3 0C906.7 0 853.3 0 800 0C746.7 0 693.3 0 640 0C586.7 0 533.3 0 480 0C426.7 0 373.3 0 320 0C266.7 0 213.3 0 160 0C106.7 0 53.3 0 26.7 0L0 0Z" fill="#9d0142"></path></svg>